<svg width="58" height="58" viewBox="0 0 58 58" fill="none" xmlns="http://www.w3.org/2000/svg">
<circle cx="29" cy="29" r="29" fill="#E3E0E1"/>
<path d="M39.8125 12H17.9375L15.75 25.125H42L39.8125 12ZM7 29.5C7 29.5 11.375 31.6875 28.875 31.6875C46.375 31.6875 50.75 29.5 50.75 29.5L42 25.125H15.75L7 29.5ZM24.5 38.25H33.25V40.4375H24.5V38.25Z" fill="black"/>
<path d="M20.125 47C23.7494 47 26.6875 44.0619 26.6875 40.4375C26.6875 36.8131 23.7494 33.875 20.125 33.875C16.5006 33.875 13.5625 36.8131 13.5625 40.4375C13.5625 44.0619 16.5006 47 20.125 47Z" fill="black"/>
<path d="M37.625 47C41.2494 47 44.1875 44.0619 44.1875 40.4375C44.1875 36.8131 41.2494 33.875 37.625 33.875C34.0006 33.875 31.0625 36.8131 31.0625 40.4375C31.0625 44.0619 34.0006 47 37.625 47Z" fill="black"/>
</svg>
