<svg width="48" height="60" viewBox="0 0 48 60" fill="none" xmlns="http://www.w3.org/2000/svg">
<path d="M30.464 16.9458C32.2479 16.9474 34.0114 17.3348 35.6395 18.0824C37.2676 18.8301 38.7238 19.9214 39.9131 21.285L43.6362 17.8426C41.253 15.1245 38.1264 13.2062 34.6642 12.3382C31.2021 11.4701 27.5653 11.6926 24.2282 12.9765C20.8912 14.2604 18.009 16.5461 15.9577 19.5354C13.9063 22.5248 12.7813 26.0788 12.7291 29.7338C12.6769 33.3888 13.7002 36.9752 15.6653 40.0247C17.6304 43.0744 20.4462 45.4457 23.7452 46.8292C27.0441 48.2127 30.6731 48.5442 34.1585 47.7805C37.6439 47.0167 40.824 45.1932 43.2837 42.5478L39.6451 39.004C38.1956 40.5587 36.3931 41.7207 34.3989 42.3862C32.4046 43.0517 30.2805 43.2001 28.2167 42.8179C26.1528 42.4358 24.2135 41.5352 22.572 40.1965C20.9304 38.8578 19.6379 37.1228 18.81 35.1465C17.982 33.1702 17.6443 31.0143 17.8272 28.8716C18.0102 26.7288 18.708 24.6658 19.8582 22.8673C21.0084 21.0687 22.5752 19.5904 24.4187 18.5647C26.2621 17.5389 28.3245 16.9976 30.4218 16.9891L30.464 16.9458Z" fill="#243745"/>
<path d="M12.7273 12.6449L9.05399 9.09094C6.18445 11.832 3.90745 15.0902 2.35364 18.6785C0.799909 22.2667 0 26.1142 0 30C0 33.8858 0.799909 37.7334 2.35364 41.3215C3.90745 44.9098 6.18445 48.168 9.05399 50.9091L12.7273 47.3552C10.3348 45.0858 8.43536 42.3833 7.1389 39.4041C5.84254 36.425 5.175 33.2286 5.175 30C5.175 26.7715 5.84254 23.575 7.1389 20.5959C8.43536 17.6168 10.3348 14.9142 12.7273 12.6449Z" fill="#243745"/>
<path d="M47.2727 5.88665C42.2643 2.05475 36.2123 -0.00779603 30 2.21445e-05V5.15993C35.1259 5.15502 40.1205 6.85011 44.2615 10L47.2727 5.88665Z" fill="#243745"/>
<path d="M30 54.9096V60C35.8111 60.0065 41.4979 58.3122 46.3636 55.1247L43.5054 50.9091C39.4845 53.5263 34.7929 54.9161 30 54.9096Z" fill="#243745"/>
<path d="M30 48.6226C26.0634 48.6199 22.2227 47.4427 18.9978 45.25C15.7728 43.0574 13.3193 39.9552 11.9693 36.3636L7.27271 38.482C9.04134 42.9424 12.1595 46.7778 16.2165 49.4828C20.2735 52.188 25.079 53.636 30 53.6363V48.6226Z" fill="#243745"/>
<path d="M11.3791 29.0909C11.684 24.3086 13.778 19.8226 17.2361 16.5431C20.6942 13.2636 25.2575 11.4362 30 11.4316V6.36365C23.9266 6.36347 18.0857 8.72274 13.686 12.9532C9.28628 17.1837 6.66456 22.9615 6.36365 29.0909H11.3791Z" fill="#243745"/>
</svg>
