<svg width="30" height="30" viewBox="0 0 30 30" fill="none" xmlns="http://www.w3.org/2000/svg">
<g id="Arrow - icon">
<path id="Vector" d="M15.6787 19.9125L25.635 9.46312C25.8012 9.28877 25.8939 9.05713 25.8939 8.81624C25.8939 8.57536 25.8012 8.34372 25.635 8.16937L25.6237 8.15812C25.5432 8.0733 25.4462 8.00577 25.3387 7.95962C25.2312 7.91347 25.1154 7.88967 24.9984 7.88967C24.8814 7.88967 24.7657 7.91347 24.6582 7.95962C24.5507 8.00577 24.4537 8.0733 24.3731 8.15812L14.9981 17.9981L5.62687 8.15812C5.54629 8.0733 5.4493 8.00577 5.3418 7.95962C5.23431 7.91347 5.11854 7.88967 5.00155 7.88967C4.88457 7.88967 4.7688 7.91347 4.6613 7.95962C4.5538 8.00577 4.45682 8.0733 4.37624 8.15812L4.36499 8.16937C4.19878 8.34372 4.10606 8.57536 4.10606 8.81624C4.10606 9.05713 4.19878 9.28877 4.36499 9.46312L14.3212 19.9125C14.4088 20.0044 14.5141 20.0776 14.6308 20.1275C14.7475 20.1775 14.8731 20.2033 15 20.2033C15.1269 20.2033 15.2525 20.1775 15.3692 20.1275C15.4859 20.0776 15.5912 20.0044 15.6787 19.9125Z" fill="#4C4D4E"/>
</g>
</svg>
