<svg width="35" height="36" viewBox="0 0 35 36" fill="none" xmlns="http://www.w3.org/2000/svg">
<g id="Location - icon" clip-path="url(#clip0_219_42)">
<path id="Vector" d="M17.5 20.1875C18.4669 20.1875 19.3943 19.8034 20.078 19.1197C20.7617 18.4359 21.1458 17.5086 21.1458 16.5417C21.1458 15.5747 20.7617 14.6474 20.078 13.9637C19.3943 13.28 18.4669 12.8958 17.5 12.8958C16.5331 12.8958 15.6057 13.28 14.922 13.9637C14.2383 14.6474 13.8542 15.5747 13.8542 16.5417C13.8542 17.5086 14.2383 18.4359 14.922 19.1197C15.6057 19.8034 16.5331 20.1875 17.5 20.1875Z" fill="#373299"/>
<path id="Vector_2" d="M27.8119 5.50062H27.8133C33.5081 11.1954 33.5081 20.4296 27.8133 26.1244L19.934 34.0037C19.2886 34.6485 18.4137 35.0107 17.5015 35.0107C16.5892 35.0107 15.7143 34.6485 15.069 34.0037L7.23041 26.1652L7.18958 26.1244C1.49479 20.4296 1.49479 11.1954 7.18958 5.50062C12.8844 -0.194175 22.1171 -0.194175 27.8119 5.50062ZM8.73541 7.04645C6.41111 9.37107 5.10535 12.5252 5.10535 15.8125C5.10535 19.0998 6.41111 22.2525 8.73541 24.5771L8.76896 24.6121L8.77187 24.615L16.6148 32.4579C16.8499 32.6921 17.1682 32.8236 17.5 32.8236C17.8318 32.8236 18.1501 32.6921 18.3852 32.4579L26.2646 24.5771C28.5615 22.2468 29.8438 19.1029 29.8321 15.8309C29.8203 12.559 28.5154 9.42435 26.2019 7.11062C23.8883 4.79688 20.7538 3.4917 17.4819 3.47968C14.2099 3.46766 11.0659 4.74977 8.73541 7.04645Z" fill="#373299"/>
</g>
<defs>
<clipPath id="clip0_219_42">
<rect width="35" height="35" fill="white" transform="translate(0 0.5)"/>
</clipPath>
</defs>
</svg>
