<svg width="35" height="36" viewBox="0 0 35 36" fill="none" xmlns="http://www.w3.org/2000/svg">
<g id="Search - icon">
<path id="Vector" d="M24.7917 25.2917L30.625 31.125M4.375 16.5417C4.375 19.6359 5.60416 22.6033 7.79209 24.7912C9.98001 26.9792 12.9475 28.2083 16.0417 28.2083C19.1359 28.2083 22.1033 26.9792 24.2912 24.7912C26.4792 22.6033 27.7083 19.6359 27.7083 16.5417C27.7083 13.4475 26.4792 10.48 24.2912 8.29209C22.1033 6.10416 19.1359 4.875 16.0417 4.875C12.9475 4.875 9.98001 6.10416 7.79209 8.29209C5.60416 10.48 4.375 13.4475 4.375 16.5417Z" stroke="#373299" stroke-width="1.7" stroke-linecap="round" stroke-linejoin="round"/>
<path id="Vector 1" d="M8.4939 19.1667C11.0762 24.0264 15.7313 24.3536 15.7313 24.3536" stroke="#373299" stroke-width="1.7" stroke-linecap="round"/>
</g>
</svg>
