<svg width="27" height="28" viewBox="0 0 27 28" fill="none" xmlns="http://www.w3.org/2000/svg">
<g id="Send - icon" clip-path="url(#clip0_110_371)">
<path id="Vector" d="M25.2759 2.02361L6.87343 17.3596M11.2089 21.7143L15.4093 25.8955C15.6672 26.1599 15.9898 26.3523 16.3449 26.4538C16.7001 26.5553 17.0756 26.5622 17.4343 26.474C17.7949 26.3898 18.1277 26.2144 18.401 25.9644C18.6742 25.7145 18.8786 25.3986 18.9945 25.0469L25.8911 4.37261C26.0354 3.9854 26.0653 3.56487 25.9774 3.16111C25.8895 2.75734 25.6874 2.38734 25.3953 2.09514C25.1031 1.80295 24.7331 1.60087 24.3293 1.51297C23.9255 1.42507 23.505 1.45504 23.1178 1.59933L2.4435 8.49783C2.07973 8.622 1.75569 8.841 1.50482 9.13222C1.25394 9.42344 1.08532 9.77633 1.01636 10.1545C0.9455 10.4987 0.961274 10.8551 1.06226 11.1918C1.16325 11.5284 1.34629 11.8347 1.59493 12.083L6.87343 17.3615L6.69986 24.046L11.2089 21.7143Z" stroke="white" stroke-width="2" stroke-linecap="round" stroke-linejoin="round"/>
</g>
<defs>
<clipPath id="clip0_110_371">
<rect width="27" height="27" fill="white" transform="translate(0 0.5)"/>
</clipPath>
</defs>
</svg>
