<svg width="43" height="43" viewBox="0 0 43 43" fill="none" xmlns="http://www.w3.org/2000/svg">
<g id="flowbite:user-headset-solid">
<path id="Vector" fill-rule="evenodd" clip-rule="evenodd" d="M21.5 3.58333C18.1737 3.58333 14.9837 4.90468 12.6317 7.2567C10.2797 9.60872 8.95833 12.7987 8.95833 16.125C7.53279 16.125 6.16564 16.6913 5.15763 17.6993C4.14963 18.7073 3.58333 20.0745 3.58333 21.5V25.0833C3.58333 26.5089 4.14963 27.876 5.15763 28.884C6.16564 29.892 7.53279 30.4583 8.95833 30.4583H10.75C11.2252 30.4583 11.6809 30.2696 12.0169 29.9336C12.3529 29.5976 12.5417 29.1418 12.5417 28.6667V16.125C12.5417 13.7491 13.4855 11.4705 15.1655 9.7905C16.8455 8.11048 19.1241 7.16666 21.5 7.16666C23.8759 7.16666 26.1545 8.11048 27.8345 9.7905C29.5145 11.4705 30.4583 13.7491 30.4583 16.125V28.8154C30.4569 30.201 29.9058 31.5295 28.926 32.5093C27.9462 33.4892 26.6177 34.0402 25.232 34.0417H25.0833C25.0833 33.0913 24.7058 32.1799 24.0338 31.5079C23.3618 30.8359 22.4504 30.4583 21.5 30.4583H19.7083C18.758 30.4583 17.8465 30.8359 17.1745 31.5079C16.5025 32.1799 16.125 33.0913 16.125 34.0417V35.8333C16.125 36.7837 16.5025 37.6951 17.1745 38.3671C17.8465 39.0391 18.758 39.4167 19.7083 39.4167H21.5C22.129 39.4166 22.7469 39.2511 23.2916 38.9366C23.8363 38.6221 24.2887 38.1697 24.6032 37.625H25.232C27.2829 37.6237 29.2692 36.9072 30.8487 35.5991C32.4283 34.291 33.5023 32.473 33.8858 30.4583H34.0417C35.4672 30.4583 36.8344 29.892 37.8424 28.884C38.8504 27.876 39.4167 26.5089 39.4167 25.0833V21.5C39.4167 20.0745 38.8504 18.7073 37.8424 17.6993C36.8344 16.6913 35.4672 16.125 34.0417 16.125C34.0417 12.7987 32.7203 9.60872 30.3683 7.2567C28.0163 4.90468 24.8263 3.58333 21.5 3.58333ZM24.0979 9.45104C22.7715 8.93538 21.3216 8.82632 19.9329 9.13774C18.5443 9.44917 17.2798 10.167 16.3006 11.1997C15.9737 11.5447 15.7972 12.0054 15.8099 12.4805C15.8227 12.9556 16.0237 13.4062 16.3687 13.7331C16.7136 14.06 17.1744 14.2365 17.6495 14.2238C18.1246 14.211 18.5752 14.01 18.9021 13.665C19.2271 13.3223 19.6167 13.0471 20.0484 12.8555C20.4801 12.6638 20.9455 12.5594 21.4177 12.5483C21.8899 12.5371 22.3597 12.6194 22.8 12.7905C23.2403 12.9615 23.6424 13.218 23.9832 13.545C24.1529 13.708 24.353 13.8361 24.5721 13.9218C24.7912 14.0075 25.0251 14.0493 25.2603 14.0446C25.4956 14.0399 25.7276 13.989 25.9432 13.8947C26.1587 13.8003 26.3536 13.6645 26.5167 13.4948C26.6797 13.3252 26.8078 13.1251 26.8935 12.906C26.9792 12.6868 27.0209 12.453 27.0163 12.2177C27.0116 11.9825 26.9607 11.7505 26.8663 11.5349C26.772 11.3193 26.6361 11.1245 26.4665 10.9614C25.7849 10.3068 24.9805 9.79352 24.0997 9.45104H24.0979Z" fill="#373299"/>
</g>
</svg>
