<svg width="44" height="56" viewBox="0 0 44 56" fill="none" xmlns="http://www.w3.org/2000/svg">
<path d="M36.4375 0.5C37.4306 0.5 38.414 0.69561 39.3315 1.07566C40.2491 1.45571 41.0828 2.01276 41.785 2.71501C42.4872 3.41725 43.0443 4.25093 43.4243 5.16846C43.8044 6.08598 44 7.06938 44 8.0625V47.9375C44 48.9306 43.8044 49.914 43.4243 50.8315C43.0443 51.7491 42.4872 52.5828 41.785 53.285C41.0828 53.9872 40.2491 54.5443 39.3315 54.9243C38.414 55.3044 37.4306 55.5 36.4375 55.5H7.5625C6.56915 55.5 5.58553 55.3043 4.66782 54.9241C3.75012 54.5439 2.91631 53.9866 2.21403 53.284C1.51175 52.5815 0.954761 51.7475 0.574871 50.8296C0.194982 49.9118 -0.000360719 48.9281 5.00048e-07 47.9348V8.0625C5.00048e-07 4.5975 2.3265 1.6825 5.5 0.78325V5.3125C4.664 5.9395 4.125 6.935 4.125 8.0625V47.932C4.125 49.8295 5.665 51.3695 7.5625 51.3695H36.4375C38.335 51.3695 39.875 49.8295 39.875 47.932V8.0625C39.875 6.165 38.335 4.625 36.4375 4.625H30.25V0.5H36.4375ZM27.5 0.5V22.8822C27.5 24.9365 25.3 25.7065 23.9525 24.9832L23.727 24.8403L17.8805 21.3065L12.166 24.7468C10.791 25.7368 8.5085 25.1318 8.26925 23.2122L8.25 22.885V0.5H27.5ZM23.375 4.625H12.375V19.8132L16.7008 17.2035C17.0452 17.0197 17.4275 16.9181 17.8178 16.9066C18.208 16.8952 18.5956 16.9742 18.9502 17.1375L23.3778 19.816L23.375 4.625Z" fill="#666698"/>
</svg>
