<svg width="57" height="57" viewBox="0 0 57 57" fill="none" xmlns="http://www.w3.org/2000/svg">
<path d="M0.0712891 8.9107C0.0712891 6.56637 1.00257 4.31807 2.66026 2.66038C4.31794 1.00269 6.56625 0.0714111 8.91057 0.0714111H43.0891C45.4335 0.0714111 47.6818 1.00269 49.3395 2.66038C50.9972 4.31807 51.9284 6.56637 51.9284 8.9107V27.1786C50.8338 26.3556 49.6473 25.6627 48.3927 25.1137V8.9107C48.3927 7.5041 47.8339 6.15512 46.8393 5.16051C45.8447 4.16589 44.4957 3.60713 43.0891 3.60713H8.91057C7.50398 3.60713 6.155 4.16589 5.16038 5.16051C4.16577 6.15512 3.607 7.5041 3.607 8.9107V43.0893C3.607 44.4959 4.16577 45.8448 5.16038 46.8395C6.155 47.8341 7.50398 48.3928 8.91057 48.3928H25.1136C25.6651 49.6539 26.3605 50.8396 27.1761 51.9286H8.91057C6.56625 51.9286 4.31794 50.9973 2.66026 49.3396C1.00257 47.6819 0.0712891 45.4336 0.0712891 43.0893V8.9107ZM43.0891 23.6428C43.558 23.6428 44.0077 23.4566 44.3392 23.125C44.6707 22.7935 44.857 22.3438 44.857 21.875C44.857 21.4061 44.6707 20.9565 44.3392 20.6249C44.0077 20.2934 43.558 20.1071 43.0891 20.1071H25.4106C24.9417 20.1071 24.492 20.2934 24.1605 20.6249C23.829 20.9565 23.6427 21.4061 23.6427 21.875C23.6427 22.3438 23.829 22.7935 24.1605 23.125C24.492 23.4566 24.9417 23.6428 25.4106 23.6428H43.0891ZM7.14272 10.0893C7.14272 9.6204 7.32897 9.17074 7.66051 8.8392C7.99205 8.50767 8.44171 8.32141 8.91057 8.32141H43.0891C43.558 8.32141 44.0077 8.50767 44.3392 8.8392C44.6707 9.17074 44.857 9.6204 44.857 10.0893C44.857 10.5581 44.6707 11.0078 44.3392 11.3393C44.0077 11.6709 43.558 11.8571 43.0891 11.8571H8.91057C8.44171 11.8571 7.99205 11.6709 7.66051 11.3393C7.32897 11.0078 7.14272 10.5581 7.14272 10.0893ZM13.0356 16.5714C11.4727 16.5714 9.97382 17.1923 8.8687 18.2974C7.76357 19.4025 7.14272 20.9014 7.14272 22.4643C7.14272 24.0271 7.76357 25.526 8.8687 26.6311C9.97382 27.7363 11.4727 28.3571 13.0356 28.3571C14.5985 28.3571 16.0973 27.7363 17.2025 26.6311C18.3076 25.526 18.9284 24.0271 18.9284 22.4643C18.9284 20.9014 18.3076 19.4025 17.2025 18.2974C16.0973 17.1923 14.5985 16.5714 13.0356 16.5714ZM10.6784 22.4643C10.6784 21.8391 10.9268 21.2396 11.3688 20.7975C11.8109 20.3555 12.4104 20.1071 13.0356 20.1071C13.6607 20.1071 14.2603 20.3555 14.7023 20.7975C15.1444 21.2396 15.3927 21.8391 15.3927 22.4643C15.3927 23.0894 15.1444 23.689 14.7023 24.131C14.2603 24.5731 13.6607 24.8214 13.0356 24.8214C12.4104 24.8214 11.8109 24.5731 11.3688 24.131C10.9268 23.689 10.6784 23.0894 10.6784 22.4643ZM7.14272 38.9643C7.14272 37.4014 7.76357 35.9025 8.8687 34.7974C9.97382 33.6923 11.4727 33.0714 13.0356 33.0714C14.5985 33.0714 16.0973 33.6923 17.2025 34.7974C18.3076 35.9025 18.9284 37.4014 18.9284 38.9643C18.9284 40.5271 18.3076 42.026 17.2025 43.1311C16.0973 44.2363 14.5985 44.8571 13.0356 44.8571C11.4727 44.8571 9.97382 44.2363 8.8687 43.1311C7.76357 42.026 7.14272 40.5271 7.14272 38.9643ZM13.0356 36.6071C12.4104 36.6071 11.8109 36.8555 11.3688 37.2975C10.9268 37.7396 10.6784 38.3391 10.6784 38.9643C10.6784 39.5894 10.9268 40.189 11.3688 40.631C11.8109 41.0731 12.4104 41.3214 13.0356 41.3214C13.6607 41.3214 14.2603 41.0731 14.7023 40.631C15.1444 40.189 15.3927 39.5894 15.3927 38.9643C15.3927 38.3391 15.1444 37.7396 14.7023 37.2975C14.2603 36.8555 13.6607 36.6071 13.0356 36.6071ZM56.6427 41.3214C56.6427 45.3849 55.0285 49.282 52.1552 52.1553C49.2818 55.0286 45.3848 56.6428 41.3213 56.6428C37.2578 56.6428 33.3607 55.0286 30.4874 52.1553C27.6141 49.282 25.9999 45.3849 25.9999 41.3214C25.9999 37.2579 27.6141 33.3608 30.4874 30.4875C33.3607 27.6142 37.2578 26 41.3213 26C45.3848 26 49.2818 27.6142 52.1552 30.4875C55.0285 33.3608 56.6427 37.2579 56.6427 41.3214ZM42.4999 31.8928C42.4999 31.5803 42.3757 31.2805 42.1547 31.0595C41.9336 30.8384 41.6339 30.7143 41.3213 30.7143C41.0087 30.7143 40.7089 30.8384 40.4879 31.0595C40.2669 31.2805 40.1427 31.5803 40.1427 31.8928V40.1428H31.8927C31.5801 40.1428 31.2804 40.267 31.0593 40.488C30.8383 40.7091 30.7141 41.0088 30.7141 41.3214C30.7141 41.634 30.8383 41.9338 31.0593 42.1548C31.2804 42.3758 31.5801 42.5 31.8927 42.5H40.1427V50.75C40.1427 51.0626 40.2669 51.3623 40.4879 51.5834C40.7089 51.8044 41.0087 51.9286 41.3213 51.9286C41.6339 51.9286 41.9336 51.8044 42.1547 51.5834C42.3757 51.3623 42.4999 51.0626 42.4999 50.75V42.5H50.7499C51.0624 42.5 51.3622 42.3758 51.5832 42.1548C51.8043 41.9338 51.9284 41.634 51.9284 41.3214C51.9284 41.0088 51.8043 40.7091 51.5832 40.488C51.3622 40.267 51.0624 40.1428 50.7499 40.1428H42.4999V31.8928Z" fill="#666698"/>
</svg>
